<svg xmlns="http://www.w3.org/2000/svg" xmlns:xlink="http://www.w3.org/1999/xlink" width="500" zoomAndPan="magnify" viewBox="0 0 375 374.999991" height="500" preserveAspectRatio="xMidYMid meet" version="1.0"><defs><clipPath id="c13434ed8a"><path d="M 136 59 L 318 59 L 318 241 L 136 241 Z M 136 59 " clip-rule="nonzero"/></clipPath><clipPath id="f5f7f4e974"><path d="M 136.640625 60.609375 L 316.679688 59.914062 L 317.375 239.953125 L 137.335938 240.648438 Z M 136.640625 60.609375 " clip-rule="nonzero"/></clipPath><clipPath id="bdd3daa9f5"><path d="M 136.488281 60.460938 L 317.238281 59.761719 L 317.9375 240.507812 L 137.1875 241.207031 Z M 136.488281 60.460938 " clip-rule="nonzero"/></clipPath><clipPath id="f225a3e205"><path d="M 135.734375 59.710938 L 317.234375 59.007812 L 317.933594 240.507812 L 136.433594 241.210938 Z M 135.734375 59.710938 " clip-rule="nonzero"/></clipPath><clipPath id="117a1c50e8"><path d="M 135 59 L 318 59 L 318 242 L 135 242 Z M 135 59 " clip-rule="nonzero"/></clipPath><clipPath id="cd4c20a1c4"><path d="M 135.734375 59.710938 L 317.234375 59.011719 L 317.9375 240.507812 L 136.4375 241.210938 Z M 135.734375 59.710938 " clip-rule="nonzero"/></clipPath><clipPath id="078fd4036f"><path d="M 135.734375 59.710938 L 317.574219 59.007812 L 318.277344 240.847656 L 136.4375 241.550781 Z M 135.734375 59.710938 " clip-rule="nonzero"/></clipPath><clipPath id="75676e15f8"><path d="M 60 136 L 240 136 L 240 316 L 60 316 Z M 60 136 " clip-rule="nonzero"/></clipPath><clipPath id="2d920058c8"><path d="M 60.742188 137.09375 L 239.109375 136.40625 L 239.800781 314.777344 L 61.429688 315.464844 Z M 60.742188 137.09375 " clip-rule="nonzero"/></clipPath><clipPath id="b3524f11f7"><path d="M 59.835938 136.199219 L 239.835938 135.503906 L 240.53125 315.503906 L 60.53125 316.199219 Z M 59.835938 136.199219 " clip-rule="nonzero"/></clipPath><clipPath id="2b1ced4b8c"><path d="M 59 135 L 241 135 L 241 317 L 59 317 Z M 59 135 " clip-rule="nonzero"/></clipPath><clipPath id="ebdeef292e"><path d="M 59.835938 136.199219 L 239.835938 135.503906 L 240.53125 315.503906 L 60.53125 316.199219 Z M 59.835938 136.199219 " clip-rule="nonzero"/></clipPath><clipPath id="5b5d616b42"><path d="M 59.835938 136.199219 L 240 135.503906 L 240.695312 315.664062 L 60.535156 316.363281 Z M 59.835938 136.199219 " clip-rule="nonzero"/></clipPath></defs><g clip-path="url(#c13434ed8a)"><g clip-path="url(#f5f7f4e974)"><g clip-path="url(#bdd3daa9f5)"><g clip-path="url(#f225a3e205)"><path fill="#000000" d="M 317.933594 240.507812 L 136.433594 241.210938 L 135.734375 59.710938 L 317.234375 59.007812 Z M 145.960938 231.609375 L 308.335938 230.984375 L 307.707031 68.609375 L 145.332031 69.238281 Z M 145.960938 231.609375 " fill-opacity="1" fill-rule="nonzero"/></g></g></g></g><g clip-path="url(#117a1c50e8)"><g clip-path="url(#cd4c20a1c4)"><g clip-path="url(#078fd4036f)"><path stroke-linecap="butt" transform="matrix(0.749994, -0.00289771, 0.00289771, 0.749994, 135.735684, 59.712205)" fill="none" stroke-linejoin="miter" d="M -0.00173931 -0.00169657 L -0.000990637 242.453239 L 242.453945 242.452491 L 242.453197 -0.00244524 L -0.00173931 -0.00169657 " stroke="#ffffff" stroke-width="106" stroke-opacity="1" stroke-miterlimit="4"/></g></g></g><g clip-path="url(#75676e15f8)"><g clip-path="url(#2d920058c8)"><g clip-path="url(#b3524f11f7)"><path fill="#ffffff" d="M 240.695312 315.667969 L 60.535156 316.363281 L 59.835938 136.199219 L 240 135.503906 Z M 69.988281 306.832031 L 231.167969 306.210938 L 230.546875 145.03125 L 69.367188 145.65625 Z M 69.988281 306.832031 " fill-opacity="1" fill-rule="nonzero"/></g></g></g><g clip-path="url(#2b1ced4b8c)"><g clip-path="url(#ebdeef292e)"><g clip-path="url(#5b5d616b42)"><path stroke-linecap="butt" transform="matrix(0.749994, -0.00289771, 0.00289771, 0.749994, 59.83771, 136.198937)" fill="none" stroke-linejoin="miter" d="M -0.00236499 0.000365924 L 0.00180819 240.220947 L 240.217181 240.216753 L 240.218196 0.00140103 L -0.00236499 0.000365924 " stroke="#ffffff" stroke-width="106" stroke-opacity="1" stroke-miterlimit="4"/></g></g></g><path stroke-linecap="butt" transform="matrix(0.528277, -0.532375, 0.532375, 0.528277, 46.458234, 324.2408)" fill="none" stroke-linejoin="miter" d="M -0.00195166 7.498501 L 534.884133 7.502721 " stroke="#000000" stroke-width="15" stroke-opacity="1" stroke-miterlimit="4"/></svg>