<svg xmlns="http://www.w3.org/2000/svg" viewBox="0 0 188.95 28.32"><defs><style>.cls-1{fill:#262626;}.cls-2{fill:#F5F3F0;}.cls-3{fill:#F5F3F0;}</style></defs><title>DT_Logo</title><g id="Layer_2" data-name="Layer 2"><g id="Layer_1-2" data-name="Layer 1"><path class="cls-1" d="M96,18a9.38,9.38,0,0,0,4.39-9.22A9.57,9.57,0,0,0,90.82.58H74.59a.72.72,0,0,0-.72.72V5.94a.72.72,0,0,0,.72.72H90.7a3.05,3.05,0,0,1,3.05,3.05h0a3.05,3.05,0,0,1-3.05,3.05H74.59a.72.72,0,0,0-.72.72V27a.72.72,0,0,0,.72.72h7.28a.72.72,0,0,0,.72-.72V19.49a.72.72,0,0,1,.72-.72h3.32a.72.72,0,0,1,.63.38l4.41,8.19a.72.72,0,0,0,.63.38h6.93a.72.72,0,0,0,.63-1.06l-4.11-7.74A.73.73,0,0,1,96,18Z"/><path class="cls-1" d="M129,.58H107a.72.72,0,0,0-.72.72V27a.72.72,0,0,0,.72.72h22a.72.72,0,0,0,.72-.72V22.38a.72.72,0,0,0-.72-.72H115.69a.72.72,0,0,1-.72-.72V17.8a.72.72,0,0,1,.72-.72h11.19a.72.72,0,0,0,.72-.72V11.94a.72.72,0,0,0-.72-.72H115.69a.72.72,0,0,1-.72-.72V7.36a.72.72,0,0,1,.72-.72H129a.72.72,0,0,0,.72-.72V1.3A.72.72,0,0,0,129,.58Z"/><path class="cls-1" d="M155.64,1.79A8.66,8.66,0,0,0,151.15.62H136.69a.72.72,0,0,0-.72.72V27a.72.72,0,0,0,.72.72h7.25a.72.72,0,0,0,.72-.72V19.5a.72.72,0,0,1,.72-.72h5.77a8.65,8.65,0,0,0,4.48-1.16,8.11,8.11,0,0,0,3.07-3.2,9.48,9.48,0,0,0,1.1-4.56V9.51A9.36,9.36,0,0,0,158.7,5,8.15,8.15,0,0,0,155.64,1.79Zm-3.48,7.93a3,3,0,0,1-3,3.06h-3.81a.72.72,0,0,1-.72-.72V7.38a.72.72,0,0,1,.72-.72h3.81a3,3,0,0,1,3,3.06Z"/><path class="cls-1" d="M186.81,14.21a8.86,8.86,0,0,0-3.56-2.3,42.49,42.49,0,0,0-5.2-1.35,23.33,23.33,0,0,1-3.92-1A1.63,1.63,0,0,1,172.92,8a1.43,1.43,0,0,1,.89-1.22,5.4,5.4,0,0,1,2.57-.5,3.69,3.69,0,0,1,2.55.76,2.5,2.5,0,0,1,.7,1,.68.68,0,0,0,.66.43h6.58a.73.73,0,0,0,.71-.84,6.71,6.71,0,0,0-3.24-5.06,15.27,15.27,0,0,0-8.26-2,15.93,15.93,0,0,0-8.43,2A6.9,6.9,0,0,0,164.31,9a6.63,6.63,0,0,0,1.56,4.64,8.92,8.92,0,0,0,3.65,2.45,43.47,43.47,0,0,0,5.29,1.43,23.21,23.21,0,0,1,3.79,1,1.55,1.55,0,0,1,1.16,1.43,1.37,1.37,0,0,1-1,1.41,8.65,8.65,0,0,1-2.65.34,6,6,0,0,1-3.2-.67,2.26,2.26,0,0,1-.92-1.52.7.7,0,0,0-.69-.55h-6.59a.71.71,0,0,0-.72.77,7.24,7.24,0,0,0,3.34,5.92q3.41,2.05,9.53,2.05a14.14,14.14,0,0,0,8.39-2.25q3.14-2.25,3.14-6.89A6.17,6.17,0,0,0,186.81,14.21Z"/><path class="cls-2" d="M149.19,6.08h-3.81a1.3,1.3,0,0,0-1.3,1.3v4.68a1.3,1.3,0,0,0,1.3,1.3h3.81a3.64,3.64,0,0,0,0-7.29Zm0,6.12h-3.81a.13.13,0,0,1-.13-.13V7.38a.13.13,0,0,1,.13-.13h3.81a2.48,2.48,0,0,1,0,4.95Z"/><path class="cls-2" d="M101,8.67A10.13,10.13,0,0,0,90.82,0H74.59a1.3,1.3,0,0,0-1.3,1.3V5.94a1.3,1.3,0,0,0,1.3,1.3H90.7a2.47,2.47,0,1,1,0,4.94H74.59a1.3,1.3,0,0,0-1.3,1.3V27a1.3,1.3,0,0,0,1.3,1.3h7.28a1.3,1.3,0,0,0,1.3-1.3V19.49a.13.13,0,0,1,.13-.13h3.32a.13.13,0,0,1,.12.07l4.41,8.19a1.3,1.3,0,0,0,1.15.69h6.93a1.3,1.3,0,0,0,1.15-1.91l-4.11-7.74a.14.14,0,0,1,.07-.19A9.9,9.9,0,0,0,101,8.67ZM95.22,19.2l4.11,7.74a.13.13,0,0,1-.12.2H92.29a.14.14,0,0,1-.12-.07l-4.4-8.19a1.3,1.3,0,0,0-1.15-.69H83.31a1.3,1.3,0,0,0-1.3,1.3V27a.13.13,0,0,1-.13.13H74.59a.13.13,0,0,1-.13-.13V13.48a.13.13,0,0,1,.13-.13H90.7a3.64,3.64,0,0,0,0-7.28H74.59a.13.13,0,0,1-.13-.13V1.3a.13.13,0,0,1,.13-.13H90.82a9,9,0,0,1,9,7.65h0a8.75,8.75,0,0,1-4.12,8.65A1.3,1.3,0,0,0,95.22,19.2Z"/><path class="cls-2" d="M129,0H107a1.3,1.3,0,0,0-1.3,1.3V27a1.3,1.3,0,0,0,1.3,1.3h22a1.3,1.3,0,0,0,1.3-1.3V22.38a1.3,1.3,0,0,0-1.3-1.3H115.69a.13.13,0,0,1-.13-.13V17.8a.13.13,0,0,1,.13-.13h11.18a1.3,1.3,0,0,0,1.3-1.3V11.94a1.3,1.3,0,0,0-1.3-1.3H115.69a.13.13,0,0,1-.13-.13V7.36a.13.13,0,0,1,.13-.13H129a1.3,1.3,0,0,0,1.3-1.3V1.3A1.3,1.3,0,0,0,129,0Zm.13,5.92a.13.13,0,0,1-.13.13H115.69a1.3,1.3,0,0,0-1.3,1.3v3.15a1.3,1.3,0,0,0,1.3,1.3h11.18a.13.13,0,0,1,.13.13v4.42a.13.13,0,0,1-.13.13H115.69a1.3,1.3,0,0,0-1.3,1.3v3.15a1.3,1.3,0,0,0,1.3,1.3H129a.13.13,0,0,1,.13.13V27a.13.13,0,0,1-.13.13H107a.13.13,0,0,1-.13-.13V1.3a.13.13,0,0,1,.13-.13h22a.13.13,0,0,1,.13.13Z"/><path class="cls-2" d="M155.93,1.28h0A9.28,9.28,0,0,0,151.15,0H136.69a1.3,1.3,0,0,0-1.3,1.3V27a1.3,1.3,0,0,0,1.3,1.3h7.25a1.3,1.3,0,0,0,1.3-1.3V19.5a.13.13,0,0,1,.13-.13h5.77a9.27,9.27,0,0,0,4.78-1.24,8.72,8.72,0,0,0,3.28-3.43,10.08,10.08,0,0,0,1.17-4.84V9.51a10,10,0,0,0-1.17-4.82A8.75,8.75,0,0,0,155.93,1.28Zm3.29,8.57a8.93,8.93,0,0,1-1,4.28,7.56,7.56,0,0,1-2.85,3,8.12,8.12,0,0,1-4.19,1.08h-5.77a1.3,1.3,0,0,0-1.3,1.3V27a.13.13,0,0,1-.13.13h-7.25a.13.13,0,0,1-.13-.13V1.34a.13.13,0,0,1,.13-.13h14.46a8.13,8.13,0,0,1,4.19,1.08,7.61,7.61,0,0,1,2.85,3,8.83,8.83,0,0,1,1,4.26Z"/><path class="cls-2" d="M187.23,13.81a9.47,9.47,0,0,0-3.79-2.45A43.16,43.16,0,0,0,178.17,10a23,23,0,0,1-3.81-1c-.76-.31-.85-.69-.85-1,0-.09,0-.38.59-.71a4.87,4.87,0,0,1,2.29-.42,3.17,3.17,0,0,1,2.16.61,1.89,1.89,0,0,1,.54.79,1.26,1.26,0,0,0,1.21.82h6.58a1.29,1.29,0,0,0,1-.44,1.34,1.34,0,0,0,.32-1.06,7.3,7.3,0,0,0-3.51-5.48A15.91,15.91,0,0,0,176.08,0a16.57,16.57,0,0,0-8.74,2.12A7.48,7.48,0,0,0,163.73,9a7.22,7.22,0,0,0,1.71,5,9.55,9.55,0,0,0,3.89,2.61,44.21,44.21,0,0,0,5.37,1.45,22.83,22.83,0,0,1,3.68,1c.71.29.8.63.8.89a.8.8,0,0,1-.64.85,8.12,8.12,0,0,1-2.46.31,5.5,5.5,0,0,1-2.88-.57,1.69,1.69,0,0,1-.67-1.14,1.29,1.29,0,0,0-1.27-1h-6.59a1.32,1.32,0,0,0-1,.43,1.28,1.28,0,0,0-.33,1A7.82,7.82,0,0,0,167,26.13c2.35,1.42,5.66,2.14,9.84,2.14a14.77,14.77,0,0,0,8.73-2.35c2.25-1.61,3.38-4.08,3.38-7.37A6.75,6.75,0,0,0,187.23,13.81ZM184.89,25a13.64,13.64,0,0,1-8.05,2.14c-4,0-7.07-.66-9.23-2-1.81-1.1-2.82-2.89-3-5.56a.14.14,0,0,1,.11,0h6.59a.12.12,0,0,1,.12.08,2.82,2.82,0,0,0,1.18,1.89,6.46,6.46,0,0,0,3.52.76,9.25,9.25,0,0,0,2.83-.37,2,2,0,0,0,1.45-2,2.09,2.09,0,0,0-1.52-2,23.48,23.48,0,0,0-3.89-1,43.06,43.06,0,0,1-5.22-1.41,8.39,8.39,0,0,1-3.42-2.3A6.1,6.1,0,0,1,164.9,9a6.3,6.3,0,0,1,3.05-5.84,15.44,15.44,0,0,1,8.13-2A14.77,14.77,0,0,1,184,3.12a6.1,6.1,0,0,1,3,4.64.17.17,0,0,1,0,.14.12.12,0,0,1-.09,0h-6.58a.15.15,0,0,1-.1,0,3.08,3.08,0,0,0-.86-1.27,4.26,4.26,0,0,0-2.94-.91,5.88,5.88,0,0,0-2.85.57A2,2,0,0,0,172.33,8a2.17,2.17,0,0,0,1.58,2.06,23.64,23.64,0,0,0,4,1.06,42.14,42.14,0,0,1,5.12,1.33,8.32,8.32,0,0,1,3.33,2.15,5.62,5.62,0,0,1,1.4,3.94C187.78,21.47,186.84,23.57,184.89,25Z"/><rect class="cls-3" x="26.57" width="9.09" height="28.31" rx="0.72" ry="0.72"/><path class="cls-3" d="M67.58,0H41.36a.72.72,0,0,0-.72.72V6.53a.72.72,0,0,0,.72.72h7.86a.72.72,0,0,1,.72.72V27.6a.72.72,0,0,0,.72.72h7.66A.72.72,0,0,0,59,27.6V8a.72.72,0,0,1,.72-.72h7.82a.72.72,0,0,0,.72-.72V.72A.72.72,0,0,0,67.58,0Z"/><path class="cls-3" d="M22,0H.72A.72.72,0,0,0,0,.72V27.6a.72.72,0,0,0,.72.72H8.38a.72.72,0,0,0,.72-.72V20.08a.72.72,0,0,1,.72-.72h4a.72.72,0,0,0,.65-.42L17.1,13.2a.72.72,0,0,0-.65-1H9.81a.72.72,0,0,1-.72-.72V8a.72.72,0,0,1,.72-.72h9.54A.72.72,0,0,0,20,6.83L22.66,1A.72.72,0,0,0,22,0Z"/></g></g></svg>