<svg width="169" height="60" viewBox="0 0 169 60" fill="none" xmlns="http://www.w3.org/2000/svg">
<path d="M13.4727 36.9448L3.17969 37.2763L9.19825 2.96357C13.9783 2.30017 18.8701 1.96861 23.8641 1.96861C27.4555 1.96861 30.2677 2.66975 32.2909 4.0723C34.1065 5.33252 35.0139 7.27527 35.0299 9.90974C35.0829 10.5729 35.01 11.3406 34.8302 12.2124C34.522 13.7095 33.8842 15.1027 32.9155 16.4006C31.3981 18.476 29.2863 20.1249 26.5895 21.3474L33.0644 31.8659L21.8083 37.8359L15.8642 26.673L13.4727 36.9448ZM20.5528 16.7036C21.4246 16.7036 22.2264 16.4001 22.9671 15.7938C23.6968 15.1967 24.1993 14.2304 24.4784 12.875C24.7576 11.5199 24.6535 10.5535 24.1699 9.95666C23.679 9.34987 23.0022 9.04687 22.1305 9.04687C21.2587 9.04687 20.4572 9.34987 19.7256 9.95666C18.987 10.5535 18.4845 11.5199 18.2051 12.875C17.926 14.2304 18.03 15.1967 18.5228 15.7938C19.0046 16.4001 19.6811 16.7036 20.5528 16.7036Z" fill="white"/>
<path d="M62.5585 37.2769L59.2806 30.2835L49.0835 30.7003L44.2869 37.8359L34.0625 33.6949L59.4376 -0.00193405L74.9812 32.0855L62.5585 37.2769ZM56.2569 17.8695L52.8214 23.091L58.0652 22.8446L56.2569 17.8695Z" fill="white"/>
<path d="M82.4927 2.98997L94.7754 2.38345L90.1182 25.9508H101.973L100.462 36.3652L75.4844 37L82.4927 2.98997Z" fill="white"/>
<path d="M110.117 2.98997L122.4 2.38345L117.743 25.9508H129.598L128.087 36.3652L103.109 37L110.117 2.98997Z" fill="white"/>
<path d="M168.994 3.85284L145.533 36.8577L132.512 37L141.28 25.0316L130.773 3.68168L144.668 1.96644L149.139 13.5653L156.848 1.90956L168.994 3.85284Z" fill="white"/>
<path d="M86.7564 59.384L80.028 59.6094L83.1178 47.2664L79.2344 47.4341L80.3596 42.2525L93.0832 41.7778L92.5734 46.902L88.3201 47.0268L86.7564 59.384Z" fill="#F25A06"/>
<path d="M112.997 42.7016L101.13 59.3969L94.5437 59.4688L98.9789 53.4148L93.6641 42.6154L100.693 41.7478L102.954 47.6148L106.853 41.719L112.997 42.7016Z" fill="#F25A06"/>
<path d="M116.585 59.4384L111.07 59.75L114.144 42.2495C116.471 41.914 118.898 41.7462 121.424 41.7462C123.672 41.7462 125.258 42.4461 126.186 43.8504C126.908 44.929 127.095 46.3237 126.743 48.035C126.656 48.4567 126.563 48.8355 126.465 49.1757C125.929 50.9159 124.882 52.2964 123.325 53.3173C122.055 54.1513 120.661 54.5684 119.132 54.5684C118.552 54.5684 117.956 54.506 117.349 54.3812L116.585 59.4384ZM119.699 50.1154C120.14 50.1154 120.55 49.9426 120.933 49.5927C121.35 49.0609 121.628 48.4567 121.767 47.781C121.887 47.201 121.828 46.7407 121.593 46.3911C121.353 46.0456 121.014 45.8731 120.573 45.8731C120.132 45.8731 119.723 46.0456 119.345 46.3911C118.961 46.7407 118.713 47.201 118.594 47.781C118.454 48.4567 118.483 49.0609 118.685 49.5927C118.92 49.9426 119.258 50.1154 119.699 50.1154Z" fill="#F25A06"/>
<path d="M129.309 42.4028L140.319 41.8707L139.483 46.9276L133.761 47.038L133.465 48.6822L138.08 48.5718L137.378 52.445H132.718L132.462 54.0171H138.458L137.67 59.4239L125.734 59.75L129.309 42.4028Z" fill="#F25A06"/>
<path d="M144.628 59.4401L139.422 59.6078L142.466 42.2512C144.884 41.9157 147.359 41.7479 149.885 41.7479C151.701 41.7479 153.124 42.1026 154.147 42.8118C155.066 43.4495 155.525 44.4319 155.533 45.7648C155.559 46.1003 155.523 46.4884 155.432 46.9293C155.276 47.6868 154.953 48.3914 154.463 49.0482C153.696 50.0979 152.627 50.932 151.263 51.55L154.539 56.8709L148.845 59.8906L145.838 54.244L144.628 59.4401ZM148.21 49.2015C148.651 49.2015 149.056 49.0482 149.431 48.7413C149.8 48.4393 150.054 47.9505 150.195 47.2651C150.337 46.5794 150.284 46.0906 150.039 45.7886C149.791 45.4817 149.449 45.3283 149.008 45.3283C148.567 45.3283 148.161 45.4817 147.791 45.7886C147.418 46.0906 147.164 46.5794 147.022 47.2651C146.881 47.9505 146.934 48.4393 147.183 48.7413C147.427 49.0482 147.769 49.2015 148.21 49.2015Z" fill="#F25A06"/>
<path fill-rule="evenodd" clip-rule="evenodd" d="M0.890124 50.9542H4.72583L5.61596 46.8454H1.78025L2.67037 42.7368H6.50608L5.61596 46.8454H9.45167L10.3418 42.7368H14.1775L13.2871 46.8454H17.1231L18.013 42.7368H21.8487L20.9588 46.8454H24.7943L23.9041 50.9542H27.7398L28.63 46.8454L29.5201 42.7368H25.6844L24.7943 46.8454H32.4657L33.3558 42.7368H37.1915L36.3014 46.8454H40.1371L41.0272 42.7368H44.8629L43.9728 46.8454H47.8085L48.6986 42.7368H52.5343L51.6442 46.8454H55.4799L54.5898 50.9542H58.4255L59.3156 46.8454L60.2058 42.7368H56.3701L55.4799 46.8454H63.1514L64.0415 42.7368H67.8772L66.9871 46.8454H70.8228L71.7129 42.7368H75.5486L74.6582 46.8454H70.8228L69.9327 50.9542H73.7684L72.8782 55.063H69.0425L68.1524 59.1719H64.3167L65.2068 55.063H61.3711L60.481 59.1719H56.6453L57.5351 55.063H53.6997L52.8098 59.1719H48.9739L49.864 55.063H46.0283L45.1384 59.1719H41.3024L42.1926 55.063H38.3568L37.467 59.1719H33.631L34.5214 55.063H30.6854L29.7956 59.1719H25.9599L26.85 55.063H23.014L22.1241 59.1719H18.2884L19.1786 55.063H15.3428L14.4527 59.1719H10.617L11.5071 55.063H7.67142L6.7813 59.1719H2.94559L3.83571 55.063H0L0.890124 50.9542ZM58.4255 50.9542L57.5357 55.063H61.3714L62.2615 50.9542H58.4255ZM62.2615 50.9542H66.0972L66.9871 46.8454H63.1514L62.2615 50.9542ZM43.9728 46.8454H40.1371L39.2472 50.9542H43.0829L43.9728 46.8454ZM43.0829 50.9542L42.1928 55.063H46.0285L46.9187 50.9542H43.0829ZM46.9187 50.9542H50.7544L51.6442 46.8454H47.8085L46.9187 50.9542ZM27.7401 50.9542L26.85 55.063H30.6859L31.5758 50.9542H27.7401ZM31.5758 50.9542H35.4115L36.3016 46.8454H32.4657L31.5758 50.9542ZM13.2871 46.8454H9.45167L8.56181 50.9542H12.3975L13.2871 46.8454ZM12.3975 50.9542L11.5071 55.063H15.3428L16.2332 50.9542H12.3975ZM16.2332 50.9542H20.0689L20.9588 46.8454H17.1231L16.2332 50.9542ZM66.0969 50.9542L65.2068 55.063H69.0425L69.9324 50.9542H66.0969ZM50.7541 50.9542L49.864 55.063H53.6997L54.5898 50.9542H50.7541ZM35.4115 50.9542L34.5214 55.063H38.3568L39.2472 50.9542H35.4115ZM20.0687 50.9542L19.1786 55.063H23.0143L23.9041 50.9542H20.0687ZM4.72583 50.9542L3.83571 55.063H7.67142L8.56181 50.9542H4.72583Z" fill="#F25A06"/>
</svg>
